PathFileType	4	(X/Y/Z)	C:/Users/beibeiliu/ov580/test_trc\sequence.40_training_dense_right.trc
DataRate	CameraRate	NumFrames	NumMarkers	Units	OrigDataRate	OrigDataStartFrame	OrigNumFrames
120	120	19	19	mm	120	38	75
Frame#	Time	ThumbCMC			ThumbMCP			ThumbIP			ThumbTip			IndexMCP			IndexPIP			IndexTip			MiddleMCP			MiddlePIP			MiddleTip			RingMCP			RingPIP			RingTip			PinkyMCP			PinkyPIP			PinkyTip			BackHand1			BackHand2			BackHand3	
		X0	Y0	Z0	X1	Y1	Z1	X2	Y2	Z2	X3	Y3	Z3	X4	Y4	Z4	X5	Y5	Z5	X6	Y6	Z6	X7	Y7	Z7	X8	Y8	Z8	X9	Y9	Z9	X10	Y10	Z10	X11	Y11	Z11	X12	Y12	Z12	X13	Y13	Z13	X14	Y14	Z14	X15	Y15	Z15	X16	Y16	Z16	X17	Y17	Z17	X18	Y18	Z18	
37	0.308333	204.687	45.2133	165.013	206.794	62.1654	138.448	219.09	68.8709	109.705	225.397	67.4922	88.9374	227.536	42.1595	95.9002	199.308	43.4263	85.7324	188.134	40.1738	118.601	220.658	23.5288	89.5723	189.272	25.211	90.9823	189.89	24.1201	128.831	214.852	4.50768	91.8344	183.92	14.4914	99.3553	189.042	16.3065	130.018	225.402	-18.6976	97.3494	224.815	-15.4243	73.4883	228.075	-11.2815	51.3059	233.416	-8.2208	147.372	224.403	-11.4492	172.075	233.784	21.8017	160.063	
38	0.316667	174.457	50.116	156.655	169.34	60.4322	127.678	177.069	69.8101	99.4283	182.908	70.0218	79.8039	199.457	53.2709	85.1728	175.617	37.6099	79.1972	172.525	30.5779	112.064	209.904	32.6795	85.5888	181.16	20.0795	83.7171	176.932	22.871	122.197	211.44	17.523	87.0947	186.034	4.11655	90.4004	182.437	12.8571	123.937	236.778	6.69703	100.794	238.992	4.27177	79.5254	242.482	8.47442	55.922	229.817	22.7149	145.191	221.817	19.8587	170.479	213.467	47.9316	156.364	
39	0.325	143.121	39.5646	145.282	140.96	41.0459	113.216	144.69	45.8804	88.0948	147.834	46.9756	67.7506	169.969	47.0612	79.1517	157.887	18.9925	68.6916	154.275	14.0138	103.763	186.208	32.3385	75.3214	171.641	3.33777	80.0166	167.169	10.6584	115.985	201.318	16.7399	81.3224	181.444	-4.1788	88.0279	174.39	6.02189	120.053	224.912	25.8769	95.6448	233.207	20.4789	74.1479	239.53	19.4536	50.1597	211.444	40.4609	137.388	203.291	35.1668	166.843	179.553	56.5706	145.178	
40	0.333333	126.048	26.2603	138.744	121.257	19.3344	111.646	120.252	21.7126	84.4254	126.866	23.4312	62.2256	149.36	30.092	71.2637	147.49	-1.04293	66.7435	143.141	0.754867	102.731	172.541	18.7937	72.6689	161.239	-9.72112	75.3731	153.138	-2.75338	112.682	188.597	10.1107	81.8031	172.513	-16.1253	87.8777	164.186	-6.98483	119.106	212.906	20.4563	92.2656	220.318	13.3818	71.348	228.817	9.69736	49.8107	187.957	41.0511	129.382	183.639	40.0409	159.766	158.186	46.7902	138.439	
41	0.341667	114.259	18.6735	140.758	104.194	8.41092	115.537	106.17	8.60418	86.354	107.827	6.8005	61.4826	131.391	16.1593	70.1198	128.772	-15.3371	69.476	125.212	-12.4136	102.157	152.625	2.85505	70.3611	146.099	-25.1855	81.3523	140.226	-10.6556	116.194	170.427	-6.16402	79.8377	155.807	-28.3793	89.7153	149.329	-11.819	122.609	196.338	6.71747	92.3838	199.966	-4.12787	67.4949	209.665	-13.1788	50.4434	175.166	33.9861	127.921	170.595	32.8878	153.54	140.846	41.1469	135.747	
42	0.35	107.843	21.1358	142.142	94.5457	10.2122	119.755	90.5624	7.81092	89.4835	90.4418	3.95143	65.1565	120.413	4.44541	71.3544	110.106	-20.6657	74.6041	110.194	-13.7844	107.219	137.445	-11.0327	74.1476	124.02	-33.9327	86.0975	121.843	-15.6864	120.738	148.653	-17.9525	83.7953	131.645	-38.0244	99.1539	128.612	-18.7144	124.783	179.828	-15.1474	91.4971	180.4	-28.0601	73.382	181.703	-41.9249	50.8706	167.799	20.7393	125.864	166.679	23.2988	151.844	137.894	35.6636	131.408	
43	0.358333	109.902	35.0181	144.359	95.3998	26.6977	122.297	88.0713	24.5798	95.9463	85.5812	19.4309	74.0598	115.135	11.1569	77.0014	88.7896	-9.08205	83.6894	96.4874	-1.26916	113.238	123.591	-7.42161	80.5737	97.8166	-22.7701	93.5142	106.08	-6.8606	124.68	132.075	-22.1616	86.9353	107.326	-30.9801	106.983	118.905	-14.0953	131.394	158.826	-31.7078	90.2382	148.837	-42.1394	74.7158	144.536	-57.1334	55.8216	165.246	8.52864	125.151	167.978	13.9541	150.853	147.115	32.0311	135.174	
44	0.366667	128.329	45.7516	143.784	110.385	50.3762	125.662	101.129	51.1055	99.6189	94.4712	48.0937	76.4627	112.066	27.7088	76.3472	85.1941	20.9827	85.3148	98.9415	20.7368	118.203	112.9	7.07016	81.6006	87.8057	1.06168	99.4332	104.892	14.0432	129.106	113.172	-11.4675	89.354	92.2049	-7.22006	111.396	112.549	2.70694	133.788	133.815	-26.265	91.5234	118.498	-36.6451	76.3029	107.311	-41.7109	58.2181	163.941	0.0172648	119.692	168.756	4.2908	153.503	157.976	33.0064	134.738	
45	0.375	148.322	55.0296	146.053	133.81	68.7221	124.554	125.617	75.2452	98.9888	116.67	75.1732	76.3111	125.827	44.2213	80.7429	95.993	53.5788	89.2217	108.86	49.0098	121.965	115.545	28.9161	82.8802	90.1124	36.6504	98.7197	111.197	35.7592	131.341	111.571	11.5218	91.47	90.644	23.2969	113.281	114.417	24.8732	135.849	116.401	-14.4029	90.6021	102.164	-10.636	80.7868	85.9365	-17.9858	60.722	157.735	1.0545	121.845	167.279	-3.66457	152.866	168.284	32.4374	131.376	
46	0.383333	166.23	59.0788	147.566	156.245	73.6148	127.544	150.459	84.5528	99.0249	142.998	85.8032	82.2001	140.892	60.5233	82.3623	113.967	73.0425	90.6314	125.165	63.2407	123.489	124.272	44.0049	83.9653	103.633	61.5479	101.283	122.69	52.3246	130.937	114.542	30.8554	90.8687	99.2568	49.197	112.71	122.579	41.1191	134.932	108.819	3.18295	89.4627	92.456	11.4396	76.2347	82.7794	16.539	59.6402	149.017	-0.0123433	118.923	159.55	-4.74875	147.838	172.783	24.5846	132.594	
47	0.391667	177.057	49.4467	152.153	176.718	71.626	128.655	175.78	81.8983	103.621	167.222	82.6789	80.9243	160.012	61.375	83.3698	134.65	80.9402	90.4285	142.107	74.2522	121.883	134.898	50.5515	82.516	121.685	73.0308	102.246	140.409	59.1461	130.637	122.968	39.9615	89.5636	111.429	61.4819	112.641	131.397	48.9148	133.371	113.36	16.6598	88.9906	104.588	28.9635	74.4414	94.2542	34.1618	55.0895	149.058	-0.722089	121.779	157.394	-5.17213	152.121	177.92	18.0026	137.443	
48	0.4	188.481	39.8796	153.942	191.5	59.4743	132.357	193.107	67.4441	103.56	190.367	71.8628	85.0759	172.498	52.2713	80.6548	159.947	76.3499	86.8151	156.129	65.5234	119.551	150.125	43.9021	81.9428	141.146	68.9729	97.3749	153.26	53.5906	129.351	137.6	37.786	87.0668	127.453	60.1542	104.728	143.685	40.7389	133.15	123.073	13.0441	89.6869	113.079	23.2103	71.6938	110.244	32.0278	51.5561	151.948	-6.59642	125.715	155.395	-13.2036	151.874	183.054	6.33053	139.557	
49	0.408333	197.641	21.2254	156.025	206.018	37.1784	130.408	212.699	45.0632	109.162	212.886	46.1831	84.7819	193.174	26.9082	85.3935	178.016	54.5004	89.1592	176.009	45.07	120.739	175.251	21.4323	83.8479	157.636	49.4717	96.085	166.063	38.0639	127.235	152.683	18.2284	85.0506	148.409	43.8021	99.1512	157.404	28.3665	131.709	143.39	-5.33215	89.3429	134.237	3.60343	68.2116	134.054	8.58007	47.1754	163.628	-23.1358	126.637	164.261	-24.541	156.156	192.932	-12.5552	145.685	
50	0.416667	211.198	11.204	159.268	220.012	25.4418	136.591	227.723	27.5936	113.503	232.872	26.4593	87.9775	213.483	9.39831	87.7192	197.94	36.627	87.0521	189.749	32.1624	119.143	191.606	6.02446	83.4221	179.551	31.6229	91.2599	176.319	21.6867	127.664	170.497	-2.16539	85.2442	162.812	24.9376	95.6374	167.913	14.0536	130.589	160.37	-24.6968	89.6948	159.948	-18.5907	68.1696	152.544	-16.2497	44.8013	179.806	-36.4916	130.18	175.06	-37.8746	160.779	201.875	-24.4279	153.525	
51	0.425	220.371	8.50886	167.246	230.543	15.6344	139.211	239.261	17.6787	117.594	247.347	15.0184	93.7557	227.88	-4.34174	95.0994	213.108	21.4235	87.3301	204.063	24.3848	121.03	208.105	-9.85738	90.5687	194.464	19.4234	90.8173	193.597	16.1935	130.115	186.51	-15.9771	88.9306	180.286	15.3952	98.1584	180.535	6.0095	131.317	177.904	-38.0347	92.6382	173.842	-35.5492	73.2707	176.849	-35.078	44.6892	192.361	-44.8467	136.935	181.465	-43.9103	167.562	215.619	-29.7555	160.532	
52	0.433333	228.295	10.8697	170.133	239.527	21.3798	144.296	248.965	18.6645	120.352	259.244	18.6306	100.736	239.843	-1.97594	97.8027	225.181	23.4964	92.1357	211.389	19.2822	124.894	221.208	-10.8852	92.0813	207.835	16.5785	93.2363	199.758	12.8943	130.33	204.76	-16.5443	91.8015	191.364	9.14778	97.9136	191.437	4.06192	132.827	195.379	-42.6966	99.3033	196.452	-41.3755	76.5329	198.911	-43.0884	52.0812	204.242	-46.5545	144.008	195.427	-39.4135	175.706	223.902	-26.3853	165.48	
53	0.441667	227.247	26.4648	173.76	238.198	40.1538	148.784	249.263	40.8697	126.701	262.514	38.1605	102.404	251.784	12.7811	107.177	230.812	28.635	92.8132	212.995	27.5115	121.566	238.499	0.585776	100.005	210.973	21.3057	96.1594	203.269	18.0805	130.593	220.045	-12.0462	95.0107	199.487	8.85933	98.2494	202.033	10.0345	134.197	218.265	-39.372	105.479	220.148	-39.041	83.2598	230.199	-37.3137	60.9674	224.226	-36.3702	153.225	212.109	-31.9853	179.803	238.891	-9.04985	173.095	
54	0.45	210.491	45.0577	172.35	213.506	59.6583	148.218	227.93	69.487	124.565	237.138	71.9195	105.752	245.851	45.3553	106.868	218.015	48.6848	95.1536	203.092	39.3304	121.081	241.844	27.1899	102.024	209.453	31.1814	96.5516	200.179	29.5212	128.532	234.447	9.95262	100.35	205.366	12.8832	98.066	199.661	16.069	131.031	248.065	-14.8877	110.227	252.382	-13.0062	88.5387	262.16	-11.5665	63.1863	243.825	-5.16533	156.918	226.727	-11.1098	184.422	240.991	23.593	175.441	
55	0.458333	189.692	53.2157	165.64	188.696	66.6926	139.084	192.341	79.1385	118.315	205.353	83.7017	95.3249	222.849	67.6261	104.221	201.509	53.6126	89.595	188.842	40.1278	115.052	230.572	47.1153	100.171	202.418	35.9751	91.0603	192.955	29.7252	127.587	235.286	25.9748	101.139	203.023	22.4937	96.9881	197.018	17.0205	129.797	253.551	13.4779	114.558	261.279	13.4314	90.6464	270.306	21.168	70.8356	245.003	23.3169	157.679	227.907	13.1601	184.606	223.215	50.7132	172.821	
